# xmcd CD database file
#
# Track frame offsets:
#	150
#	3114
#	26528
#	58287
#	74428
#	95139
#	101167
#	118731
#	138777
#	171971
#
# Disc length: 2346 seconds
#
# Revision: 2
# Processed by: cddbd v1.5.2PL0 Copyright (c) Steve Scherf et al.
# Submitted via: CDex 1.70beta2
#
DISCID=8a09280a
DTITLE=FELT - Grow Color
DYEAR=2013
DGENRE=東方アレンジ
TTITLE0=In my room
TTITLE1=Day after
TTITLE2=Crumbling
TTITLE3=Sweet Poison (Alternative version)
TTITLE4=Runway Drive (BYPT Planet sorrow#2 Venus Remix)
TTITLE5=Deeper (Inerlude)
TTITLE6=Step (NAGI  World apart Remix)
TTITLE7=Roll Ground (BYPT ICU dub mix)
TTITLE8=Hail Storm (MZC A BraneWalker House Remix)
TTITLE9=You To Thank
EXTD=YEAR: 2013
EXTT0=
EXTT1=
EXTT2=
EXTT3=
EXTT4=
EXTT5=
EXTT6=
EXTT7=
EXTT8=
EXTT9=
PLAYORDER=
